<?xml version="1.0" encoding="utf-8"?>
<!-- Generator: Adobe Illustrator 24.1.1, SVG Export Plug-In . SVG Version: 6.00 Build 0)  -->
<svg version="1.1" id="Layer_1" xmlns="http://www.w3.org/2000/svg" xmlns:xlink="http://www.w3.org/1999/xlink" x="0px" y="0px"
	 viewBox="0 0 262 300" style="enable-background:new 0 0 262 300;" xml:space="preserve">
<style type="text/css">
	.st0{fill:none;stroke:#E94560;stroke-width:8;}
	.st1{fill:#E94560;}
</style>
<path class="st0" d="M5.1,77.3L131,4.6l125.9,72.7v145.4L131,295.4L5.1,222.7V77.3z"/>
<path class="st1" d="M48.4,153.8c0-8.5,1.7-15.9,5.1-22.2c3.4-6.4,8.1-11.4,14.1-14.9c6.1-3.5,13-5.3,20.8-5.3
	c10.1,0,18.4,2.5,24.9,7.4c6.6,4.9,11,11.7,13.1,20.4h-14.7c-1.4-5-4.2-8.9-8.3-11.8c-4-2.9-9-4.3-15-4.3c-7.8,0-14.1,2.7-18.9,8.1
	c-4.8,5.3-7.2,12.8-7.2,22.6c0,9.9,2.4,17.6,7.2,22.9c4.8,5.4,11.1,8.1,18.9,8.1c6,0,11-1.4,15-4.2c4-2.8,6.8-6.8,8.3-12h14.7
	c-2.2,8.4-6.6,15.1-13.2,20.3c-6.6,5-14.8,7.5-24.8,7.5c-7.8,0-14.8-1.8-20.8-5.3c-6-3.5-10.7-8.5-14.1-14.9
	C50.2,169.9,48.4,162.4,48.4,153.8z M173.8,196.4c-6.3,0-11.9-1.1-16.9-3.2c-5-2.2-8.9-5.2-11.9-9c-2.9-3.9-4.5-8.3-4.8-13.3h14.1
	c0.4,4.1,2.3,7.4,5.7,10c3.5,2.6,8.1,3.9,13.7,3.9c5.2,0,9.3-1.2,12.3-3.4c3-2.3,4.5-5.2,4.5-8.7c0-3.6-1.6-6.3-4.8-7.9
	c-3.2-1.8-8.2-3.6-14.9-5.3c-6.1-1.6-11.1-3.2-15-4.8c-3.8-1.7-7.1-4.1-9.9-7.3c-2.7-3.3-4.1-7.6-4.1-12.9c0-4.2,1.3-8,3.8-11.5
	s6.1-6.3,10.6-8.3c4.6-2.1,9.9-3.2,15.8-3.2c9.1,0,16.4,2.3,22.1,6.9s8.6,10.9,9,18.9h-13.6c-0.3-4.3-2.1-7.8-5.3-10.3
	c-3.1-2.6-7.3-3.9-12.6-3.9c-4.9,0-8.8,1.1-11.7,3.2c-2.9,2.1-4.4,4.8-4.4,8.2c0,2.7,0.9,5,2.6,6.8c1.8,1.7,4,3.1,6.6,4.2
	c2.7,1,6.4,2.1,11.1,3.4c5.9,1.6,10.7,3.2,14.4,4.8c3.7,1.5,6.8,3.8,9.4,6.9c2.7,3.1,4.1,7.1,4.2,12.1c0,4.5-1.3,8.6-3.8,12.2
	c-2.5,3.6-6.1,6.4-10.6,8.6C184.9,195.4,179.7,196.4,173.8,196.4z"/>
</svg>
